<svg width="37" height="37" viewBox="0 0 37 37" fill="none" xmlns="http://www.w3.org/2000/svg">
<circle cx="18.5" cy="18.5" r="18.5" fill="#F5F5F5"/>
<path fill-rule="evenodd" clip-rule="evenodd" d="M29.4743 9.57139C29.7664 9.81033 29.9516 10.1555 29.9893 10.531C30.0269 10.9065 29.9138 11.2816 29.675 11.5737L16.8669 27.228C16.741 27.3819 16.5843 27.5077 16.4068 27.5973C16.2293 27.6869 16.035 27.7383 15.8365 27.7482C15.6379 27.7582 15.4394 27.7264 15.2539 27.6549C15.0684 27.5834 14.8999 27.4739 14.7593 27.3333L7.64369 20.2177C7.50777 20.0865 7.39935 19.9294 7.32477 19.7558C7.25018 19.5822 7.21092 19.3954 7.20928 19.2065C7.20764 19.0175 7.24365 18.8301 7.3152 18.6552C7.38676 18.4803 7.49243 18.3214 7.62605 18.1878C7.75967 18.0542 7.91856 17.9485 8.09346 17.877C8.26836 17.8054 8.45575 17.7694 8.64471 17.771C8.83367 17.7727 9.02041 17.8119 9.19404 17.8865C9.36767 17.9611 9.5247 18.0695 9.65598 18.2054L15.6601 24.2096L27.472 9.77205C27.7109 9.47996 28.0561 9.29473 28.4316 9.2571C28.8071 9.21947 29.1821 9.33252 29.4743 9.57139Z" fill="#737373"/>
</svg>
